<svg xmlns="http://www.w3.org/2000/svg" xmlns:xlink="http://www.w3.org/1999/xlink" version="1.1" id="Layer_1" x="0px" y="0px" width="1000px" height="245px" viewBox="0 0 1000 245" enable-background="new 0 0 1000 245" xml:space="preserve">
<circle fill="#F19300" cx="747.709" cy="164.153" r="58.976"/>
<g class="nubes_peq">
	<circle fill="#EEEFEF" cx="688.343" cy="177.656" r="29.104"/>
	<circle fill="#EEEFEF" cx="738.669" cy="196.157" r="29.105"/>
	<circle fill="#EEEFEF" cx="794.46" cy="210.805" r="29.104"/>
	<circle fill="#EEEFEF" cx="566.85" cy="184.88" r="25.016"/>
	<circle fill="#EEEFEF" cx="632.389" cy="180.642" r="15.518"/>
	<circle fill="#EEEFEF" cx="647.906" cy="167.054" r="15.518"/>
	<path fill="#FFFFFF" d="M572.708,237.975c-26.661,0-16.618,0-51.85,0c0-14.316,11.606-25.925,25.925-25.925   S572.708,223.658,572.708,237.975z"/>
	<path fill="#FFFFFF" d="M839.736,241.094c-42.668,0-26.596-2.438-82.981-2.438c0-22.915,18.575-41.491,41.49-41.491   S839.736,218.179,839.736,241.094z"/>
	<circle fill="#FFFFFF" cx="593.667" cy="190.737" r="32.698"/>
	<ellipse fill="#FFFFFF" cx="701.7" cy="213.356" rx="73.357" ry="20.443"/>
	<circle fill="#FFFFFF" cx="761.09" cy="210.805" r="25.925"/>
	<circle fill="#FFFFFF" cx="546.782" cy="207.877" r="20.066"/>
	<circle fill="#FFFFFF" cx="714.059" cy="197.164" r="29.105"/>
	<circle fill="#FFFFFF" cx="628.343" cy="212.05" r="20.067"/>
	<circle fill="#FFFFFF" cx="674.532" cy="176.622" r="26.625"/>
	<path fill="#FFFFFF" d="M658.305,194.203c0,12.06-43.665,12.06-43.665,0c0-12.059,9.774-21.832,21.832-21.832   C648.531,172.371,658.305,182.145,658.305,194.203z"/>
	<path fill="#FFFFFF" d="M659.551,203.042c0,11.081-40.134,11.081-40.134,0c0-11.083,8.984-20.066,20.067-20.066   S659.551,191.959,659.551,203.042z"/>
	<path fill="#FFFFFF" d="M628.343,223.787c0,11.081-80.109,11.081-80.109,0c0-11.084,17.934-20.067,40.055-20.067   C610.41,203.72,628.343,212.703,628.343,223.787z"/>
	<path fill="#FFFFFF" d="M688.344,237.975c-21.286,0-13.445,0-40.133,0c0-11.08,8.985-20.065,20.066-20.065   C679.359,217.909,688.344,226.895,688.344,237.975z"/>
	<polygon fill="#FFFFFF" points="838.857,235.813 668.695,223.565 521.241,235.29 520.723,241.028 839.736,241.094  "/>
</g>
<g>
	<circle fill="#EEEFEF" cx="955.128" cy="78.728" r="16.337"/>
	<circle fill="#EEEFEF" cx="979.419" cy="96.25" r="10.133"/>
	<circle fill="#EEEFEF" cx="914.554" cy="75.482" r="10.133"/>
	<path fill="#FFFFFF" d="M919.981,110.155c-17.41,0-10.853,0-33.861,0c0-9.35,7.58-16.93,16.931-16.93   C912.4,93.226,919.981,100.806,919.981,110.155z"/>
	<circle fill="#FFFFFF" cx="928.643" cy="79.319" r="16.93"/>
	<circle fill="#FFFFFF" cx="964.918" cy="93.226" r="16.929"/>
	<circle fill="#FFFFFF" cx="905.418" cy="88.587" r="13.104"/>
	<path fill="#FFFFFF" d="M961.092,88.587c0,7.237-26.208,7.237-26.208,0c0-7.238,5.868-13.104,13.105-13.104   C955.226,75.482,961.092,81.349,961.092,88.587z"/>
	<path fill="#FFFFFF" d="M956.313,100.89c0,7.236-52.313,7.236-52.313,0c0-7.237,11.71-13.104,26.156-13.104   C944.601,87.786,956.313,93.652,956.313,100.89z"/>
	<path fill="#FFFFFF" d="M995.494,110.155c-13.9,0-8.779,0-26.208,0c0-7.235,5.868-13.104,13.104-13.104   C989.627,97.052,995.494,102.92,995.494,110.155z"/>
	<polygon fill="#FFFFFF" points="995.419,108.744 936.911,100.745 886.211,108.402 886.033,112.149 995.722,112.192  "/>
</g>
<g>
	<circle fill="#EEEFEF" cx="423.897" cy="211.534" r="16.337"/>
	<circle fill="#EEEFEF" cx="448.188" cy="229.058" r="10.133"/>
	<circle fill="#EEEFEF" cx="383.324" cy="208.291" r="10.133"/>
	<path fill="#FFFFFF" d="M388.75,242.962c-17.411,0-10.853,0-33.86,0c0-9.35,7.58-16.93,16.93-16.93   C381.17,226.032,388.75,233.612,388.75,242.962z"/>
	<circle fill="#FFFFFF" cx="397.413" cy="212.128" r="16.93"/>
	<circle fill="#FFFFFF" cx="433.688" cy="226.032" r="16.929"/>
	<circle fill="#FFFFFF" cx="374.188" cy="221.395" r="13.104"/>
	<path fill="#FFFFFF" d="M429.862,221.395c0,7.237-26.208,7.237-26.208,0c0-7.238,5.868-13.104,13.105-13.104   C423.995,208.291,429.862,214.156,429.862,221.395z"/>
	<path fill="#FFFFFF" d="M425.082,233.698c0,7.236-52.313,7.236-52.313,0c0-7.238,11.71-13.105,26.156-13.105   C413.371,220.593,425.082,226.46,425.082,233.698z"/>
	<path fill="#FFFFFF" d="M464.264,242.962c-13.9,0-8.78,0-26.208,0c0-7.235,5.869-13.104,13.104-13.104   C458.396,229.858,464.264,235.727,464.264,242.962z"/>
	<polygon fill="#FFFFFF" points="464.189,241.551 405.68,233.553 354.981,241.21 354.802,244.957 464.491,245  "/>
</g>
<g>
	<circle fill="#EEEFEF" cx="397.575" cy="130.925" r="16.337"/>
	<circle fill="#EEEFEF" cx="421.866" cy="148.447" r="10.133"/>
	<circle fill="#EEEFEF" cx="357.001" cy="127.68" r="10.133"/>
	<path fill="#FFFFFF" d="M362.428,162.353c-17.411,0-10.853,0-33.86,0c0-9.35,7.58-16.93,16.93-16.93   C354.848,145.423,362.428,153.003,362.428,162.353z"/>
	<circle fill="#FFFFFF" cx="371.091" cy="131.517" r="16.93"/>
	<circle fill="#FFFFFF" cx="407.365" cy="145.423" r="16.929"/>
	<circle fill="#FFFFFF" cx="347.865" cy="140.784" r="13.104"/>
	<path fill="#FFFFFF" d="M403.54,140.784c0,7.237-26.209,7.237-26.209,0c0-7.238,5.869-13.104,13.105-13.104   S403.54,133.546,403.54,140.784z"/>
	<path fill="#FFFFFF" d="M398.759,153.087c0,7.236-52.313,7.236-52.313,0c0-7.237,11.71-13.104,26.156-13.104   C387.048,139.983,398.759,145.85,398.759,153.087z"/>
	<path fill="#FFFFFF" d="M437.941,162.353c-13.9,0-8.78,0-26.208,0c0-7.235,5.868-13.104,13.104-13.104   C432.074,149.249,437.941,155.117,437.941,162.353z"/>
	<polygon fill="#FFFFFF" points="437.866,160.941 379.358,152.942 328.659,160.6 328.48,164.347 438.168,164.39  "/>
</g>
<g>
	<circle fill="#EEEFEF" cx="108.096" cy="171.342" r="39.416"/>
	<path fill="#EEEFEF" d="M216.381,197.366c0,21.769-17.646,12.341-39.415,12.341c-21.771,0-39.417,9.428-39.417-12.341   s17.646-39.418,39.417-39.418C198.735,157.948,216.381,175.598,216.381,197.366z"/>
	<circle fill="#EEEFEF" cx="234.859" cy="198.479" r="24.448"/>
	<path fill="#FFFFFF" d="M84.28,221.182c-42.006,0-26.184,0-81.693,0c0-22.559,18.288-40.848,40.846-40.848   C65.994,180.334,84.28,198.623,84.28,221.182z"/>
	<circle fill="#FFFFFF" cx="84.28" cy="180.334" r="40.847"/>
	<circle fill="#FFFFFF" cx="135.176" cy="189.566" r="31.617"/>
	<path fill="#FFFFFF" d="M215.841,207.739c0,17.461-63.233,17.461-63.233,0c0-17.463,14.156-31.615,31.618-31.615   C201.687,176.124,215.841,190.276,215.841,207.739z"/>
	<path fill="#FFFFFF" d="M266.474,221.182c-33.538,0-21.183,0-63.233,0c0-17.46,14.155-31.615,31.616-31.615   C252.318,189.566,266.474,203.722,266.474,221.182z"/>
	<polygon fill="#FFFFFF" points="266.474,221.182 125.127,198.479 2.803,216.952 2.373,225.993 266.474,226.146  "/>
</g>
<g>
	<circle fill="#EEEFEF" cx="93.83" cy="28.143" r="16.337"/>
	<circle fill="#EEEFEF" cx="118.121" cy="45.665" r="10.133"/>
	<circle fill="#EEEFEF" cx="53.256" cy="24.897" r="10.133"/>
	<path fill="#FFFFFF" d="M58.683,59.57c-17.411,0-10.853,0-33.86,0c0-9.35,7.58-16.93,16.93-16.93   C51.103,42.641,58.683,50.221,58.683,59.57z"/>
	<circle fill="#FFFFFF" cx="67.345" cy="28.734" r="16.93"/>
	<circle fill="#FFFFFF" cx="103.621" cy="42.641" r="16.93"/>
	<circle fill="#FFFFFF" cx="44.12" cy="38.002" r="13.104"/>
	<path fill="#FFFFFF" d="M99.794,38.002c0,7.237-26.209,7.237-26.209,0c0-7.238,5.869-13.104,13.105-13.104   C93.927,24.897,99.794,30.764,99.794,38.002z"/>
	<path fill="#FFFFFF" d="M95.014,50.305c0,7.236-52.313,7.236-52.313,0c0-7.237,11.71-13.104,26.156-13.104   C83.303,37.201,95.014,43.067,95.014,50.305z"/>
	<path fill="#FFFFFF" d="M134.197,59.57c-13.9,0-8.781,0-26.209,0c0-7.235,5.868-13.104,13.104-13.104   C128.33,46.467,134.197,52.335,134.197,59.57z"/>
	<polygon fill="#FFFFFF" points="134.121,58.159 75.613,50.16 24.914,57.817 24.735,61.564 134.423,61.607  "/>
</g>
<g>
	<circle fill="#EEEFEF" cx="288.906" cy="25.6" r="16.337"/>
	<circle fill="#EEEFEF" cx="313.197" cy="43.122" r="10.133"/>
	<circle fill="#EEEFEF" cx="248.333" cy="22.354" r="10.133"/>
	<path fill="#FFFFFF" d="M253.759,57.027c-17.411,0-10.853,0-33.86,0c0-9.35,7.58-16.93,16.93-16.93   C246.179,40.098,253.759,47.678,253.759,57.027z"/>
	<circle fill="#FFFFFF" cx="262.422" cy="26.191" r="16.93"/>
	<circle fill="#FFFFFF" cx="298.697" cy="40.098" r="16.93"/>
	<circle fill="#FFFFFF" cx="239.197" cy="35.459" r="13.104"/>
	<path fill="#FFFFFF" d="M294.871,35.459c0,7.237-26.209,7.237-26.209,0c0-7.238,5.869-13.104,13.105-13.104   C289.003,22.354,294.871,28.221,294.871,35.459z"/>
	<path fill="#FFFFFF" d="M290.09,47.762c0,7.236-52.313,7.236-52.313,0c0-7.237,11.71-13.104,26.156-13.104   C278.379,34.658,290.09,40.524,290.09,47.762z"/>
	<path fill="#FFFFFF" d="M329.273,57.027c-13.9,0-8.781,0-26.209,0c0-7.235,5.868-13.104,13.104-13.104   C323.406,43.924,329.273,49.792,329.273,57.027z"/>
	<polygon fill="#FFFFFF" points="329.197,55.616 270.689,47.617 219.99,55.274 219.811,59.021 329.5,59.064  "/>
</g>
<g>
	<circle fill="#EEEFEF" cx="944.406" cy="198.564" r="16.337"/>
	<circle fill="#EEEFEF" cx="968.698" cy="216.087" r="10.133"/>
	<circle fill="#EEEFEF" cx="903.833" cy="195.319" r="10.134"/>
	<path fill="#FFFFFF" d="M909.26,229.992c-17.41,0-10.853,0-33.86,0c0-9.35,7.58-16.93,16.93-16.93   C901.68,213.063,909.26,220.643,909.26,229.992z"/>
	<circle fill="#FFFFFF" cx="917.922" cy="199.156" r="16.93"/>
	<circle fill="#FFFFFF" cx="954.197" cy="213.063" r="16.93"/>
	<circle fill="#FFFFFF" cx="894.697" cy="208.424" r="13.104"/>
	<path fill="#FFFFFF" d="M950.371,208.424c0,7.237-26.209,7.237-26.209,0c0-7.238,5.869-13.104,13.105-13.104   S950.371,201.186,950.371,208.424z"/>
	<path fill="#FFFFFF" d="M945.591,220.727c0,7.236-52.313,7.236-52.313,0c0-7.237,11.711-13.104,26.156-13.104   C933.88,207.623,945.591,213.489,945.591,220.727z"/>
	<path fill="#FFFFFF" d="M984.773,229.992c-13.9,0-8.781,0-26.209,0c0-7.235,5.868-13.104,13.104-13.104   C978.906,216.889,984.773,222.757,984.773,229.992z"/>
	<polygon fill="#FFFFFF" points="984.697,228.581 926.189,220.582 875.49,228.239 875.312,231.986 985,232.029  "/>
</g>
<g>
	<circle fill="#EEEFEF" cx="799.265" cy="41.596" r="16.337"/>
	<circle fill="#EEEFEF" cx="823.556" cy="59.118" r="10.133"/>
	<circle fill="#EEEFEF" cx="758.691" cy="38.351" r="10.133"/>
	<path fill="#FFFFFF" d="M764.118,73.023c-17.411,0-10.853,0-33.86,0c0-9.35,7.58-16.93,16.93-16.93   C756.538,56.094,764.118,63.674,764.118,73.023z"/>
	<circle fill="#FFFFFF" cx="772.78" cy="42.188" r="16.931"/>
	<circle fill="#FFFFFF" cx="809.056" cy="56.094" r="16.93"/>
	<circle fill="#FFFFFF" cx="749.556" cy="51.455" r="13.104"/>
	<path fill="#FFFFFF" d="M805.229,51.455c0,7.237-26.209,7.237-26.209,0c0-7.238,5.868-13.104,13.105-13.104   C799.362,38.351,805.229,44.217,805.229,51.455z"/>
	<path fill="#FFFFFF" d="M800.449,63.758c0,7.236-52.313,7.236-52.313,0c0-7.237,11.709-13.104,26.155-13.104   S800.449,56.521,800.449,63.758z"/>
	<path fill="#FFFFFF" d="M839.632,73.023c-13.9,0-8.781,0-26.209,0c0-7.235,5.868-13.104,13.104-13.104   C833.765,59.92,839.632,65.788,839.632,73.023z"/>
	<polygon fill="#FFFFFF" points="839.556,71.612 781.048,63.613 730.349,71.271 730.17,75.018 839.858,75.061  "/>
</g>
<g>
	<circle fill="#EEEFEF" cx="519.907" cy="45.647" r="39.416"/>
	<path fill="#EEEFEF" d="M628.192,71.672c0,21.769-17.646,12.341-39.414,12.341c-21.771,0-39.418,9.428-39.418-12.341   s17.646-39.418,39.418-39.418C610.546,32.254,628.192,49.903,628.192,71.672z"/>
	<path fill="#EEEFEF" d="M671.118,72.784c0,13.502-10.945,24.45-24.451,24.45c-13.502,0-24.445-10.948-24.445-24.45   c0-13.503,10.943-24.448,24.445-24.448C660.173,48.336,671.118,59.281,671.118,72.784z"/>
	<path fill="#FFFFFF" d="M496.091,95.487c-42.006,0-26.184,0-81.693,0c0-22.559,18.288-40.848,40.846-40.848   C477.806,54.64,496.091,72.929,496.091,95.487z"/>
	<circle fill="#FFFFFF" cx="496.091" cy="54.64" r="40.847"/>
	<circle fill="#FFFFFF" cx="546.987" cy="63.872" r="31.617"/>
	<path fill="#FFFFFF" d="M627.651,82.045c0,17.461-63.232,17.461-63.232,0c0-17.463,14.156-31.615,31.617-31.615   S627.651,64.582,627.651,82.045z"/>
	<path fill="#FFFFFF" d="M678.284,95.487c-33.537,0-21.182,0-63.232,0c0-17.46,14.154-31.615,31.615-31.615   C664.13,63.872,678.284,78.027,678.284,95.487z"/>
	<polygon fill="#FFFFFF" points="678.284,95.487 536.938,72.784 414.614,91.258 414.184,100.299 678.284,100.451  "/>
</g>
</svg>